<?xml version="1.0" encoding="UTF-8"?>
<!-- Generator: visioncortex VTracer 0.6.3 -->
<svg version="1.1" xmlns="http://www.w3.org/2000/svg" width="1280" height="935">
<path d="M0 0 C422.4 0 844.8 0 1280 0 C1280 308.55 1280 617.1 1280 935 C857.6 935 435.2 935 0 935 C0 626.45 0 317.9 0 0 Z " fill="#000102" transform="translate(0,0)"/>
<path d="M0 0 C422.4 0 844.8 0 1280 0 C1280 308.55 1280 617.1 1280 935 C857.6 935 435.2 935 0 935 C0 626.45 0 317.9 0 0 Z M215 15 C213.86 15.12 212.72 15.23 211.54 15.35 C208.48 15.67 205.43 16.01 202.38 16.38 C201.1 16.51 201.1 16.51 199.79 16.65 C192.57 17.6 187.13 20.32 182.56 26.06 C180.47 29.99 179.87 33.07 179.89 37.49 C179.89 38.37 179.89 39.25 179.89 40.16 C179.89 41.1 179.9 42.05 179.9 43.02 C179.9 43.99 179.91 44.96 179.91 45.96 C179.91 49.06 179.92 52.15 179.94 55.25 C179.94 57.35 179.95 59.45 179.95 61.55 C179.96 66.7 179.98 71.85 180 77 C178.85 77.08 178.85 77.08 177.68 77.16 C169.14 77.77 160.66 78.69 152.16 79.74 C151.48 79.83 150.81 79.91 150.11 80 C146.55 80.44 142.99 80.88 139.43 81.33 C135.78 81.79 132.12 82.23 128.46 82.68 C125.62 83.02 122.79 83.38 119.95 83.74 C117.95 83.99 115.95 84.23 113.95 84.47 C112.12 84.7 112.12 84.7 110.26 84.94 C109.19 85.07 108.12 85.21 107.03 85.34 C101.78 86.48 97.8 88.68 94.25 92.69 C93.39 93.62 93.39 93.62 92.52 94.57 C89.05 100.12 88.75 106.4 88.77 112.79 C88.77 113.53 88.77 114.26 88.77 115.01 C88.77 117.4 88.79 119.8 88.8 122.19 C88.81 123.86 88.81 125.53 88.81 127.2 C88.82 131.57 88.84 135.94 88.86 140.32 C88.88 144.79 88.89 149.26 88.9 153.73 C88.92 162.49 88.96 171.24 89 180 C88.22 179.98 87.44 179.97 86.63 179.95 C83.07 179.89 79.5 179.85 75.94 179.81 C74.71 179.79 73.48 179.76 72.21 179.74 C63.71 179.67 58.83 180.42 51.75 185.19 C45.69 191.39 45.56 198.51 45.62 206.72 C45.62 207.78 45.61 208.84 45.61 209.94 C45.59 213.5 45.6 217.06 45.61 220.63 C45.61 223.21 45.6 225.79 45.6 228.36 C45.58 233.97 45.58 239.58 45.59 245.19 C45.6 253.53 45.59 261.87 45.58 270.22 C45.56 285.11 45.56 300.01 45.56 314.91 C45.57 327.95 45.57 340.98 45.56 354.02 C45.56 355.77 45.56 357.52 45.56 359.27 C45.56 361.9 45.56 364.54 45.55 367.17 C45.54 391.67 45.54 416.16 45.55 440.66 C45.55 441.58 45.55 442.51 45.55 443.46 C45.55 450.96 45.55 458.46 45.55 465.96 C45.57 495.22 45.56 524.47 45.53 553.73 C45.51 586.6 45.49 619.47 45.5 652.33 C45.5 655.84 45.5 659.34 45.5 662.84 C45.5 663.71 45.5 664.57 45.5 665.46 C45.51 678.49 45.5 691.52 45.49 704.55 C45.47 719.36 45.47 734.18 45.49 748.99 C45.5 757.28 45.5 765.57 45.48 773.87 C45.47 780.06 45.48 786.24 45.49 792.43 C45.5 794.94 45.49 797.44 45.48 799.95 C45.47 803.35 45.48 806.75 45.5 810.15 C45.49 811.13 45.48 812.11 45.47 813.11 C45.54 819.47 46.73 824.5 50 830 C51.9 831.98 51.9 831.98 54.06 833 C54.73 833.37 55.41 833.74 56.1 834.12 C60.1 835.97 63.33 836.15 67.71 836.2 C68.39 836.21 69.08 836.22 69.79 836.23 C72.1 836.27 74.41 836.29 76.72 836.31 C78.38 836.33 80.03 836.36 81.69 836.38 C86.23 836.43 90.76 836.48 95.3 836.53 C98.18 836.56 101.07 836.59 103.96 836.62 C147.2 837.1 190.43 837.12 233.68 837.07 C244.64 837.06 255.61 837.06 266.58 837.05 C286.11 837.05 305.65 837.03 325.19 837.02 C326.34 837.02 327.49 837.02 328.68 837.02 C335.71 837.01 342.74 837.01 349.77 837 C360.48 836.99 371.19 836.99 381.9 836.98 C383.07 836.98 384.25 836.98 385.46 836.98 C405.06 836.96 424.66 836.95 444.25 836.95 C456.27 836.94 468.28 836.93 480.3 836.92 C488.47 836.91 496.64 836.91 504.8 836.91 C509.51 836.9 514.22 836.9 518.93 836.89 C523.23 836.89 527.53 836.89 531.83 836.89 C533.39 836.89 534.96 836.88 536.52 836.88 C538.62 836.88 540.73 836.88 542.84 836.88 C544.01 836.88 545.19 836.88 546.4 836.88 C549 837 549 837 550 838 C550.3 840.16 550.56 842.33 550.81 844.5 C552.32 855.01 554.63 860.54 562.98 867.27 C571.71 872.26 580.64 872.44 590.49 872.39 C591.92 872.39 593.36 872.4 594.79 872.4 C598.66 872.42 602.53 872.41 606.4 872.4 C610.47 872.4 614.53 872.4 618.6 872.41 C625.42 872.41 632.24 872.41 639.07 872.39 C646.94 872.37 654.81 872.38 662.68 872.4 C669.46 872.41 676.23 872.41 683.01 872.4 C687.05 872.4 691.09 872.4 695.13 872.41 C698.93 872.42 702.73 872.41 706.52 872.39 C707.91 872.39 709.3 872.39 710.69 872.4 C722.08 872.45 731.62 871.27 740 863 C744.86 857.35 746.42 851.88 747.16 844.65 C747.25 843.91 747.33 843.17 747.42 842.41 C747.62 840.61 747.81 838.8 748 837 C749.53 837 749.53 837 751.09 837 C796.08 837.04 841.06 837.07 886.05 837.08 C886.73 837.08 887.41 837.09 888.11 837.09 C902.91 837.09 917.72 837.1 932.52 837.1 C939.78 837.1 947.03 837.11 954.29 837.11 C955.02 837.11 955.74 837.11 956.48 837.11 C979.89 837.12 1003.31 837.13 1026.72 837.15 C1050.78 837.17 1074.84 837.18 1098.9 837.19 C1102.29 837.19 1105.69 837.19 1109.09 837.19 C1109.76 837.19 1110.43 837.19 1111.12 837.19 C1121.22 837.19 1131.31 837.2 1141.41 837.21 C1152.9 837.22 1164.39 837.23 1175.88 837.23 C1181.75 837.23 1187.61 837.23 1193.48 837.24 C1198.85 837.25 1204.21 837.25 1209.58 837.24 C1211.53 837.24 1213.47 837.24 1215.41 837.25 C1218.05 837.26 1220.69 837.25 1223.33 837.25 C1224.09 837.25 1224.84 837.26 1225.62 837.26 C1233.06 837.22 1240.53 836.34 1246.51 831.59 C1252.13 825.6 1252.58 817.96 1252.5 810.16 C1252.51 809.09 1252.51 808.03 1252.52 806.94 C1252.54 803.37 1252.52 799.81 1252.51 796.25 C1252.51 793.67 1252.52 791.09 1252.53 788.51 C1252.54 782.9 1252.54 777.3 1252.53 771.69 C1252.52 763.35 1252.52 755.01 1252.54 746.67 C1252.56 731.78 1252.55 716.88 1252.54 701.99 C1252.53 688.95 1252.53 675.92 1252.54 662.88 C1252.54 662.02 1252.54 661.15 1252.54 660.26 C1252.54 656.75 1252.54 653.24 1252.54 649.73 C1252.55 616.81 1252.54 583.89 1252.52 550.97 C1252.5 521.72 1252.5 492.46 1252.52 463.21 C1252.54 430.35 1252.55 397.49 1252.54 364.63 C1252.54 361.12 1252.54 357.62 1252.54 354.12 C1252.53 353.25 1252.53 352.39 1252.53 351.5 C1252.53 338.48 1252.54 325.45 1252.55 312.42 C1252.56 297.61 1252.55 282.8 1252.53 267.99 C1252.52 259.7 1252.52 251.41 1252.53 243.12 C1252.54 236.93 1252.53 230.75 1252.51 224.56 C1252.51 222.06 1252.51 219.55 1252.52 217.04 C1252.53 213.64 1252.52 210.24 1252.5 206.84 C1252.51 205.87 1252.52 204.89 1252.53 203.88 C1252.45 196.66 1250.89 190.5 1246.22 184.84 C1245.65 184.4 1245.08 183.96 1244.5 183.5 C1243.65 182.8 1243.65 182.8 1242.78 182.09 C1239.01 179.78 1235.04 179.83 1230.7 179.68 C1229.5 179.64 1228.29 179.6 1227.05 179.56 C1225.8 179.52 1224.54 179.48 1223.25 179.44 C1221.35 179.37 1221.35 179.37 1219.4 179.31 C1216.27 179.2 1213.13 179.1 1210 179 C1208.54 176.08 1208.9 173.53 1208.92 170.27 C1208.92 169.58 1208.92 168.89 1208.93 168.18 C1208.93 166.68 1208.94 165.17 1208.96 163.67 C1208.97 161.28 1208.98 158.9 1208.99 156.52 C1209.02 149.74 1209.05 142.96 1209.1 136.18 C1209.12 132.03 1209.14 127.89 1209.15 123.74 C1209.16 122.17 1209.17 120.59 1209.18 119.01 C1209.2 116.8 1209.21 114.59 1209.21 112.37 C1209.22 111.11 1209.23 109.86 1209.23 108.56 C1208.88 103.24 1207.58 98.39 1204.81 93.81 C1204.45 93.18 1204.08 92.55 1203.71 91.89 C1198.14 85.72 1191.04 85.06 1183.21 84.15 C1182.07 84 1180.92 83.86 1179.75 83.71 C1176.1 83.25 1172.46 82.81 1168.81 82.38 C1166.41 82.07 1164.01 81.77 1161.61 81.47 C1150.05 80.02 1138.48 78.66 1126.87 77.63 C1121.21 77.1 1121.21 77.1 1119 76 C1119 74.75 1118.99 73.5 1118.99 72.21 C1118.97 67.53 1118.91 62.86 1118.85 58.18 C1118.82 56.16 1118.81 54.14 1118.8 52.13 C1119.04 34.93 1119.04 34.93 1110.62 20.5 C1105.12 17.35 1099.05 16.61 1092.83 15.96 C1092.07 15.88 1091.3 15.8 1090.52 15.71 C1088.09 15.45 1085.67 15.19 1083.25 14.94 C1081.64 14.76 1080.03 14.59 1078.42 14.41 C1074.6 14 1070.78 13.59 1066.96 13.2 C1065.29 13.03 1063.62 12.85 1061.95 12.68 C1054.21 11.9 1046.46 11.66 1038.69 11.44 C1037.98 11.42 1037.27 11.4 1036.54 11.38 C1031.69 11.24 1026.85 11.11 1022 11 C1021.02 10.98 1020.03 10.95 1019.02 10.92 C948.97 9.37 873.4 20.18 808.68 47.86 C806.22 48.91 803.74 49.9 801.25 50.88 C772.63 62.29 744.24 76.01 718.64 93.23 C716.62 94.58 714.64 95.8 712.5 96.94 C710.03 98.32 708.22 99.65 706 101.5 C703.44 103.63 701 105.13 698.1 106.72 C693.13 109.75 688.62 113.48 684 117 C682.06 118.44 680.13 119.88 678.19 121.31 C672.84 125.32 667.62 129.46 662.43 133.66 C658.03 137.22 653.54 140.63 649 144 C648.55 143.63 648.11 143.26 647.65 142.87 C639.24 135.89 630.81 128.98 622.11 122.37 C619.97 120.74 617.85 119.1 615.73 117.45 C608.7 111.95 601.49 106.85 594 102 C592.65 101.11 591.31 100.23 589.96 99.34 C582.16 94.22 574.28 89.33 566.14 84.77 C563.33 83.19 560.57 81.55 557.81 79.88 C547.3 73.55 536.39 68.25 525.28 63.07 C523.31 62.15 521.35 61.21 519.39 60.25 C436.94 20.64 344.67 8.05 215 15 Z " fill="#FBFCFE" transform="translate(0,0)"/>
<path d="M0 0 C2.45 0.17 4.89 0.31 7.34 0.44 C8.92 0.54 8.92 0.54 10.54 0.64 C11.9 0.71 11.9 0.71 13.29 0.78 C16.64 1.41 18.22 1.96 20.82 4.26 C21.6 7.62 21.47 10.97 21.42 14.4 C21.42 15.46 21.42 16.52 21.43 17.62 C21.44 21.21 21.41 24.8 21.38 28.38 C21.38 30.97 21.38 33.55 21.38 36.14 C21.38 41.78 21.36 47.41 21.34 53.05 C21.29 61.44 21.28 69.82 21.27 78.2 C21.25 92.31 21.21 106.41 21.16 120.51 C21.11 134.48 21.07 148.44 21.04 162.41 C21.04 163.28 21.04 164.14 21.03 165.04 C21.03 169.44 21.02 173.85 21.01 178.26 C20.95 209.48 20.86 240.71 20.77 271.94 C20.67 302.28 20.59 332.62 20.52 362.97 C20.52 364.37 20.52 364.37 20.51 365.8 C20.49 375.19 20.47 384.58 20.45 393.96 C20.4 413.09 20.36 432.22 20.31 451.34 C20.31 452.22 20.31 453.1 20.31 454.01 C20.17 512.76 20 571.51 19.82 630.26 C16.77 631.08 14.49 631.29 11.34 630.95 C10.46 630.87 9.57 630.78 8.66 630.69 C7.7 630.59 6.74 630.49 5.75 630.38 C-15.5 628.37 -36.84 627.94 -58.18 628.26 C-59.74 628.28 -59.74 628.28 -61.32 628.3 C-137.58 629.43 -213.07 647.24 -282.18 679.26 C-283.49 679.86 -283.49 679.86 -284.81 680.47 C-300.78 687.85 -316.23 696 -331.18 705.26 C-331.8 705.64 -332.43 706.02 -333.07 706.42 C-335.21 707.73 -337.35 709.06 -339.5 710.38 C-340.18 710.8 -340.86 711.22 -341.56 711.66 C-344.42 713.43 -347.11 715.2 -349.73 717.31 C-352.11 719.2 -354.58 720.63 -357.23 722.11 C-361.08 724.38 -364.64 727.07 -368.25 729.7 C-369.02 730.26 -369.8 730.82 -370.6 731.39 C-374.93 734.54 -379.12 737.78 -383.18 741.26 C-384.11 738.48 -384.31 736.82 -384.31 733.95 C-384.31 733.07 -384.32 732.18 -384.32 731.27 C-384.32 730.29 -384.31 729.31 -384.31 728.31 C-384.31 727.27 -384.32 726.23 -384.32 725.16 C-384.32 721.64 -384.32 718.13 -384.32 714.61 C-384.32 712.07 -384.32 709.54 -384.32 707.01 C-384.33 701.48 -384.33 695.96 -384.33 690.43 C-384.33 682.22 -384.33 674 -384.34 665.78 C-384.35 650.26 -384.35 634.73 -384.35 619.21 C-384.35 607.22 -384.35 595.24 -384.36 583.25 C-384.36 579.8 -384.36 576.36 -384.36 572.91 C-384.36 572.06 -384.36 571.2 -384.36 570.32 C-384.37 546.21 -384.37 522.11 -384.37 498 C-384.37 496.64 -384.37 496.64 -384.37 495.24 C-384.37 490.64 -384.37 486.03 -384.37 481.42 C-384.37 480.5 -384.37 479.59 -384.37 478.64 C-384.37 476.79 -384.37 474.94 -384.37 473.09 C-384.37 444.28 -384.38 415.46 -384.39 386.65 C-384.4 354.3 -384.41 321.95 -384.41 289.6 C-384.41 286.16 -384.41 282.71 -384.41 279.27 C-384.41 278.42 -384.41 277.57 -384.41 276.69 C-384.41 263.01 -384.42 249.33 -384.43 235.65 C-384.44 221.91 -384.44 208.17 -384.43 194.43 C-384.43 186.26 -384.43 178.09 -384.44 169.92 C-384.44 163.83 -384.44 157.74 -384.43 151.66 C-384.43 149.18 -384.43 146.71 -384.44 144.24 C-384.45 140.89 -384.44 137.55 -384.43 134.21 C-384.44 133.23 -384.44 132.26 -384.45 131.25 C-384.44 130.36 -384.44 129.48 -384.43 128.56 C-384.43 127.8 -384.43 127.03 -384.43 126.25 C-384.18 124.26 -384.18 124.26 -382.18 121.26 C-381.19 121.26 -380.2 121.26 -379.18 121.26 C-378.85 120.27 -378.52 119.28 -378.18 118.26 C-376.21 116.42 -376.21 116.42 -373.56 114.32 C-372.57 113.53 -371.57 112.74 -370.55 111.92 C-370.01 111.49 -369.47 111.07 -368.91 110.63 C-367.1 109.19 -365.3 107.74 -363.5 106.28 C-356.21 100.38 -348.84 94.67 -341.18 89.26 C-339.87 88.32 -339.87 88.32 -338.53 87.36 C-334.97 84.82 -331.44 82.33 -327.62 80.2 C-324.97 78.7 -322.51 77.16 -320 75.45 C-314.55 71.77 -308.88 68.52 -303.18 65.26 C-302.04 64.59 -300.9 63.93 -299.73 63.25 C-292.34 58.96 -284.85 55.01 -277.18 51.26 C-274.87 50.09 -272.56 48.93 -270.25 47.76 C-263.62 44.45 -256.95 41.27 -250.18 38.26 C-249.05 37.75 -247.92 37.24 -246.75 36.72 C-169.57 3.02 -83.26 -5.73 0 0 Z " fill="#FBFCFE" transform="translate(1058.18310546875,52.74169921875)"/>
<path d="M0 0 C1.02 0.01 2.04 0.03 3.09 0.04 C58.4 0.88 115.28 10.16 167 30 C168.05 30.4 169.1 30.8 170.19 31.22 C183.66 36.37 197.07 41.57 210 48 C211.28 48.63 212.57 49.26 213.85 49.89 C240.46 62.99 240.46 62.99 249.91 69.62 C252.28 71.19 254.73 72.49 257.25 73.81 C263.25 77.03 268.77 80.84 274.3 84.79 C276.01 86.01 277.73 87.21 279.45 88.41 C286.2 93.16 292.77 98.08 299.21 103.25 C301.87 105.37 304.53 107.37 307.41 109.2 C308.26 109.79 309.12 110.39 310 111 C310 111.66 310 112.32 310 113 C310.73 113.25 311.46 113.5 312.21 113.75 C315.25 115.11 317.23 116.7 319.69 118.94 C320.45 119.63 321.22 120.32 322.01 121.03 C324.17 123.17 325.86 124.88 326.25 127.99 C326.25 128.76 326.25 129.53 326.25 130.32 C326.25 131.2 326.26 132.09 326.26 133.01 C326.25 134.48 326.25 134.48 326.25 135.97 C326.25 137.02 326.25 138.06 326.25 139.13 C326.26 142.66 326.25 146.18 326.24 149.71 C326.24 152.25 326.24 154.79 326.25 157.33 C326.25 162.87 326.25 168.4 326.24 173.94 C326.23 182.18 326.23 190.42 326.23 198.65 C326.23 212.51 326.22 226.36 326.21 240.21 C326.2 253.93 326.19 267.66 326.19 281.38 C326.19 282.23 326.19 283.08 326.19 283.96 C326.19 288.29 326.19 292.62 326.19 296.95 C326.18 327.62 326.17 358.3 326.15 388.98 C326.13 418.79 326.12 448.6 326.11 478.41 C326.11 479.33 326.11 480.25 326.11 481.19 C326.11 490.41 326.1 499.64 326.1 508.86 C326.1 527.65 326.09 546.44 326.08 565.23 C326.08 566.53 326.08 566.53 326.08 567.85 C326.07 625.57 326.03 683.28 326 741 C322.78 739.75 320.08 738.53 317.31 736.45 C316.62 735.94 315.94 735.44 315.23 734.91 C314.49 734.36 313.76 733.82 313 733.25 C296.06 720.82 278.54 709.21 260.08 699.16 C257.82 697.9 255.64 696.55 253.44 695.19 C201.94 664.31 140.88 646.75 82 637 C81.13 636.85 80.25 636.7 79.35 636.55 C28.05 628.02 -25.38 627.94 -77 633 C-78.27 630.45 -78.13 628.67 -78.14 625.82 C-78.15 624.16 -78.15 624.16 -78.16 622.47 C-78.16 621.25 -78.16 620.02 -78.16 618.76 C-78.17 617.46 -78.18 616.16 -78.18 614.82 C-78.2 611.2 -78.21 607.57 -78.22 603.95 C-78.23 600.03 -78.24 596.1 -78.26 592.18 C-78.28 584.42 -78.31 576.66 -78.33 568.89 C-78.35 562.48 -78.37 556.07 -78.39 549.66 C-78.47 524.84 -78.54 500.03 -78.6 475.22 C-78.62 467.98 -78.64 460.74 -78.66 453.5 C-78.66 452.48 -78.67 451.46 -78.67 450.41 C-78.67 449.39 -78.67 448.37 -78.68 447.32 C-78.94 352.87 -79.1 258.42 -78.56 113.31 C-78.56 112.6 -78.56 111.89 -78.55 111.16 C-78.39 75.44 -78.21 39.72 -78 4 C-75.43 3.67 -72.86 3.35 -70.29 3.03 C-69.57 2.93 -68.85 2.84 -68.1 2.75 C-63.22 2.13 -58.38 1.65 -53.48 1.37 C-52.77 1.33 -52.07 1.28 -51.34 1.24 C-49.1 1.11 -46.86 0.99 -44.62 0.88 C-43.46 0.81 -43.46 0.81 -42.26 0.75 C-28.16 -0 -14.12 -0.28 0 0 Z " fill="#FBFCFE" transform="translate(298,51)"/>
<path d="M0 0 C0.38 1.81 0.38 1.81 0.38 4.04 C0.38 4.9 0.39 5.75 0.4 6.63 C0.39 7.57 0.38 8.52 0.38 9.49 C0.38 10.49 0.38 11.49 0.39 12.53 C0.4 15.92 0.39 19.32 0.38 22.71 C0.38 25.16 0.39 27.6 0.39 30.04 C0.4 35.38 0.4 40.71 0.39 46.04 C0.38 53.97 0.39 61.9 0.4 69.83 C0.41 83.17 0.42 96.51 0.41 109.85 C0.4 128.07 0.42 146.28 0.43 164.5 C0.44 172.98 0.45 181.46 0.46 189.94 C0.46 190.79 0.46 191.64 0.46 192.51 C0.48 212.73 0.48 232.96 0.49 253.18 C0.49 254.06 0.49 254.95 0.49 255.86 C0.49 269.32 0.5 282.79 0.5 296.25 C0.5 310.6 0.51 324.95 0.51 339.3 C0.51 340.18 0.51 341.07 0.51 341.98 C0.52 362.16 0.53 382.34 0.54 402.51 C0.54 403.78 0.54 403.78 0.55 405.08 C0.55 413.55 0.56 422.01 0.57 430.47 C0.59 448.67 0.6 466.86 0.59 485.06 C0.58 498.33 0.59 511.59 0.6 524.86 C0.61 532.74 0.61 540.63 0.6 548.51 C0.59 554.4 0.6 560.28 0.62 566.16 C0.62 568.54 0.62 570.93 0.61 573.31 C0.6 576.54 0.61 579.77 0.62 583.01 C0.61 584.41 0.61 584.41 0.6 585.84 C0.65 590.99 1.14 594.54 4 599 C5.84 600.9 5.84 600.9 7.94 602.31 C8.61 602.8 9.28 603.29 9.96 603.8 C18.45 608.8 31.04 605.67 40.25 604.62 C54.35 603.11 68.44 602.29 82.6 601.65 C83.39 601.61 84.19 601.57 85 601.54 C86.55 601.47 88.1 601.4 89.65 601.33 C93.96 601.13 98.23 600.81 102.52 600.38 C106.9 599.99 110.87 600.2 115.21 600.74 C121.32 601.31 127.49 601.1 133.62 601.06 C135.02 601.06 136.42 601.05 137.82 601.05 C141.22 601.04 144.61 601.02 148 601 C148 601.66 148 602.32 148 603 C148.79 602.99 149.59 602.97 150.4 602.96 C158.2 602.89 165.81 603.27 173.56 604.12 C174.75 604.25 175.93 604.38 177.15 604.52 C219.76 609.45 261.12 619 301 635 C301 635.66 301 636.32 301 637 C302.32 637.33 303.64 637.66 305 638 C299.56 637.34 294.15 636.58 288.73 635.73 C234.24 627.26 180.18 623.45 125.01 623.68 C120.57 623.69 116.13 623.69 111.69 623.68 C63.12 623.64 15.01 626.26 -33.24 631.73 C-33.99 631.81 -34.74 631.9 -35.52 631.99 C-37.55 632.21 -39.58 632.45 -41.61 632.68 C-44.44 632.95 -47.16 633.07 -50 633 C-51.16 630.67 -51.13 629.34 -51.13 626.75 C-51.13 625.85 -51.13 624.95 -51.13 624.02 C-51.13 623.02 -51.13 622.03 -51.13 621 C-51.13 619.94 -51.13 618.88 -51.13 617.8 C-51.13 614.21 -51.13 610.63 -51.13 607.05 C-51.13 604.47 -51.13 601.89 -51.13 599.31 C-51.14 593.68 -51.14 588.06 -51.13 582.43 C-51.13 574.06 -51.13 565.69 -51.13 557.33 C-51.14 542.38 -51.14 527.44 -51.14 512.5 C-51.13 499.43 -51.13 486.35 -51.13 473.27 C-51.13 472.41 -51.13 471.54 -51.13 470.65 C-51.13 467.13 -51.13 463.62 -51.14 460.1 C-51.14 427.1 -51.14 394.1 -51.13 361.1 C-51.13 331.76 -51.13 302.41 -51.13 273.07 C-51.14 240.13 -51.14 207.19 -51.13 174.25 C-51.13 170.74 -51.13 167.23 -51.13 163.73 C-51.13 162.86 -51.13 162 -51.13 161.11 C-51.13 148.04 -51.13 134.97 -51.14 121.9 C-51.14 107.04 -51.14 92.19 -51.13 77.33 C-51.13 69.01 -51.13 60.69 -51.13 52.36 C-51.14 46.17 -51.13 39.97 -51.13 33.77 C-51.13 31.25 -51.13 28.73 -51.13 26.21 C-51.13 22.81 -51.13 19.4 -51.13 16 C-51.13 15 -51.13 14.01 -51.13 12.98 C-51.13 12.08 -51.13 11.18 -51.13 10.25 C-51.13 9.47 -51.13 8.7 -51.13 7.89 C-51 6 -51 6 -50 4 C-47.44 3.45 -47.44 3.45 -44.01 3.02 C-42.74 2.85 -41.47 2.69 -40.16 2.52 C-39.14 2.39 -39.14 2.39 -38.1 2.26 C-36 2 -33.9 1.72 -31.8 1.44 C-28.21 0.95 -24.61 0.48 -21.01 0.03 C-19.52 -0.16 -18.04 -0.35 -16.56 -0.55 C-14.38 -0.84 -12.2 -1.12 -10.02 -1.39 C-8.74 -1.56 -7.46 -1.72 -6.15 -1.89 C-3 -2 -3 -2 0 0 Z " fill="#FBFCFE" transform="translate(180,119)"/>
<path d="M0 0 C1.91 -0.01 3.82 -0.02 5.72 -0.02 C6.79 -0.02 7.85 -0.03 8.94 -0.03 C12.82 0.01 16.59 0.34 20.43 0.8 C21.16 0.89 21.89 0.97 22.63 1.06 C24.14 1.24 25.65 1.42 27.16 1.6 C29.46 1.88 31.76 2.14 34.06 2.4 C35.54 2.58 37.02 2.75 38.5 2.93 C39.18 3.01 39.86 3.08 40.56 3.16 C44.49 3.65 47.23 4.49 51 6 C51 213.24 51 420.48 51 634 C43.1 633.39 35.24 632.75 27.37 631.91 C25.32 631.7 23.27 631.49 21.22 631.28 C18.12 630.96 15.02 630.64 11.92 630.31 C-28.92 625.94 -69.87 624.48 -110.93 624.61 C-116.57 624.63 -122.21 624.62 -127.85 624.6 C-180.27 624.46 -232.22 627.95 -284.02 635.95 C-289.34 636.77 -294.64 637.46 -300 638 C-297.57 634.36 -295.23 633.69 -291.28 632.33 C-290.6 632.08 -289.92 631.84 -289.22 631.59 C-286.98 630.8 -284.74 630.02 -282.5 629.25 C-281.73 628.98 -280.96 628.71 -280.17 628.44 C-202.29 601.41 -117.21 596.79 -35.7 606.03 C-21.38 608.06 -21.38 608.06 -8 604 C-4.4 600.55 -1.21 597.26 -0.87 592.06 C-0.87 590.95 -0.87 590.95 -0.87 589.82 C-0.87 588.96 -0.86 588.1 -0.86 587.22 C-0.86 586.27 -0.86 585.33 -0.86 584.35 C-0.86 582.84 -0.86 582.84 -0.85 581.3 C-0.84 577.9 -0.84 574.49 -0.84 571.09 C-0.84 568.64 -0.83 566.18 -0.83 563.73 C-0.82 558.38 -0.81 553.03 -0.8 547.68 C-0.8 539.73 -0.78 531.77 -0.77 523.82 C-0.74 510.44 -0.73 497.06 -0.71 483.68 C-0.69 470.42 -0.67 457.17 -0.65 443.92 C-0.65 443.1 -0.65 442.27 -0.65 441.42 C-0.64 437.24 -0.64 433.06 -0.63 428.88 C-0.58 399.25 -0.54 369.62 -0.5 339.99 C-0.46 311.2 -0.42 282.41 -0.37 253.62 C-0.37 252.73 -0.37 251.85 -0.37 250.93 C-0.35 242.02 -0.34 233.11 -0.33 224.21 C-0.3 206.06 -0.27 187.91 -0.24 169.76 C-0.24 168.93 -0.24 168.09 -0.24 167.23 C-0.16 111.49 -0.08 55.74 0 0 Z " fill="#FBFCFE" transform="translate(1118,118)"/>
<path d="M0 0 C0 6.27 0 12.54 0 19 C-0.66 19 -1.32 19 -2 19 C-1.5 19.52 -1.01 20.03 -0.5 20.56 C1.5 23.81 1.22 26.26 1 30 C-0.77 29.86 -2.54 29.71 -4.31 29.56 C-5.3 29.48 -6.28 29.4 -7.3 29.32 C-10 29 -10 29 -13 28 C-12.98 28.74 -12.95 29.47 -12.93 30.23 C-12.9 31.69 -12.9 31.69 -12.88 33.19 C-12.85 34.15 -12.83 35.11 -12.8 36.11 C-13.01 39.13 -13.73 41.27 -15 44 C-15.66 44 -16.32 44 -17 44 C-17 44.66 -17 45.32 -17 46 C-21.01 49.79 -23.86 50.26 -29.38 50.25 C-31.25 50.19 -33.13 50.11 -35 50 C-35 49.34 -35 48.68 -35 48 C-35.76 47.73 -36.53 47.46 -37.31 47.19 C-40.5 45.78 -42.35 44.59 -43.69 41.31 C-44.53 35.04 -44.68 30.34 -41 25 C-35.3 20 -35.3 20 -32 20 C-32.45 19.09 -32.91 18.19 -33.38 17.25 C-35.19 13.62 -35.19 13.62 -37 10 C-37.66 10 -38.32 10 -39 10 C-39.33 8.02 -39.66 6.04 -40 4 C-37 2 -37 2 -35.1 2.01 C-31.88 3.53 -30.44 5.96 -28.38 8.81 C-27.6 9.87 -26.82 10.93 -26.02 12.02 C-24.46 14.32 -23.14 16.47 -22 19 C-21.01 19 -20.02 19 -19 19 C-19.19 18.44 -19.39 17.87 -19.59 17.29 C-20.09 14.51 -19.59 13.01 -18.62 10.38 C-18.21 9.21 -18.21 9.21 -17.79 8.02 C-16.38 4.42 -15.21 3.29 -11.88 1.31 C-11.13 0.85 -10.38 0.4 -9.62 -0.07 C-7 -1 -7 -1 0 0 Z " fill="#424443" transform="translate(673,395)"/>
<path d="M0 0 C0.68 -0.01 1.36 -0.03 2.06 -0.04 C4 0.19 4 0.19 7 2.19 C7.81 3.92 7.81 3.92 8.44 5.94 C10.13 10.81 12.46 14.69 16.19 18.31 C18.12 20.31 18.61 21.48 19 24.19 C17.35 24.52 15.7 24.85 14 25.19 C14 24.53 14 23.87 14 23.19 C13.01 22.86 12.02 22.53 11 22.19 C10.34 21.2 9.68 20.21 9 19.19 C7.68 19.52 6.36 19.85 5 20.19 C5.33 20.85 5.66 21.51 6 22.19 C6.55 26.72 6.43 30.26 4.5 34.44 C1.32 37.93 -1.9 39.86 -6 42.19 C-4.02 45.49 -2.04 48.79 0 52.19 C-0.99 53.18 -1.98 54.17 -3 55.19 C-6.47 53.9 -8.3 51.85 -10.56 48.98 C-12.8 46.19 -15.24 43.57 -17.64 40.92 C-19 39.19 -19 39.19 -19 37.19 C-19.99 36.86 -20.98 36.53 -22 36.19 C-24.22 32.94 -24.51 29.61 -24.88 25.75 C-25 24.64 -25.12 23.53 -25.24 22.38 C-24.94 18.42 -23.85 16.9 -21 14.19 C-20.01 14.19 -19.02 14.19 -18 14.19 C-18 13.53 -18 12.87 -18 12.19 C-13.01 9.89 -9.35 8.64 -4 10.44 C-0.28 11.91 -0.28 11.91 1 13.19 C1.33 12.53 1.66 11.87 2 11.19 C1.34 11.19 0.68 11.19 0 11.19 C-1.56 8.85 -2.86 6.48 -4.06 3.94 C-4.88 2.01 -4.88 2.01 -7 1.19 C-4.36 0.31 -2.72 0.03 0 0 Z " fill="#414342" transform="translate(254,741.8125)"/>
<path d="M0 0 C4.08 3.35 6.22 7.37 7 12.56 C7.23 16.76 6.27 20.03 5 24 C5.5 25.49 5.5 25.49 6 27 C-9.84 27 -25.68 27 -42 27 C-42.33 25.68 -42.66 24.36 -43 23 C-38.93 19.66 -35.71 18.86 -30.5 18.81 C-29.75 18.8 -28.99 18.78 -28.22 18.77 C-25.75 19.03 -24.14 19.77 -22 21 C-22.23 19.82 -22.45 18.65 -22.69 17.44 C-23.24 12.88 -22.29 10.04 -20 6 C-14.77 -0.36 -7.91 -2.86 0 0 Z " fill="#434544" transform="translate(188,810)"/>
<path d="M0 0 C2.9 0.11 5.79 0.24 8.69 0.38 C9.5 0.41 10.32 0.44 11.16 0.47 C15.45 0.68 19.17 0.87 23 3 C26.61 7.68 27.75 11.58 27.53 17.49 C26.61 21.83 24.1 24.92 21 28 C16.23 30.38 9.05 29.18 3.99 27.95 C0.84 26.44 -0.17 24.31 -1.41 21.14 C-3.19 14.64 -1.5 9.04 1 3 C1.33 2.67 1.66 2.34 2 2 C1.34 1.34 0.68 0.68 0 0 Z " fill="#404241" transform="translate(319,681)"/>
<path d="M0 0 C0.47 7.72 0.54 14.45 -4 21 C-9.32 26.63 -15.97 27.83 -23.44 28.15 C-29.38 28.21 -35.16 28.11 -41 27 C-41 26.34 -41 25.68 -41 25 C-33.69 20.7 -29.54 18.48 -21 20 C-20.01 20.33 -19.02 20.66 -18 21 C-18.21 20.01 -18.41 19.02 -18.62 18 C-19.31 12.85 -18.77 8.43 -15.66 4.16 C-10.91 -0.6 -6.46 -0.7 0 0 Z " fill="#444645" transform="translate(1252,809)"/>
<path d="M0 0 C0.66 0.66 1.32 1.32 2 2 C6.02 4.68 8.25 4.32 13 4 C13.33 6.31 13.66 8.62 14 11 C13.01 11.5 13.01 11.5 12 12 C14.1 16.72 16.59 20.12 21 22.88 C24.15 24.06 24.95 23.98 28 23 C28.66 23.66 29.32 24.32 30 25 C29.46 28.54 29.46 28.54 28 30 C22.83 30.68 19.1 30.69 14.62 27.88 C12 25 12 25 10.12 21.94 C7.9 18.87 7.2 18.5 3.88 17.19 C1.31 16.04 0.25 15.49 -1.03 12.96 C-2.26 8.12 -2.14 4.63 0 0 Z " fill="#3F4141" transform="translate(209,766)"/>
<path d="M0 0 C1.81 1.38 1.81 1.38 2.56 3.5 C2.69 4.43 2.69 4.43 2.81 5.38 C1.84 5.66 0.87 5.95 -0.12 6.25 C-3.29 7.02 -3.29 7.02 -4.19 9.38 C-2.74 9.4 -2.74 9.4 -1.27 9.42 C-0 9.47 1.26 9.51 2.56 9.56 C3.82 9.6 5.07 9.63 6.36 9.67 C9.81 10.38 9.81 10.38 12.21 12.77 C14.64 16.72 15.08 19 14.19 23.56 C12.81 26.38 12.81 26.38 10.44 27.81 C6.9 28.57 4.98 27.96 1.81 26.38 C2.14 25.05 2.47 23.74 2.81 22.38 C4.13 22.04 5.45 21.72 6.81 21.38 C6.81 20.05 6.81 18.74 6.81 17.38 C6 17.42 5.2 17.47 4.36 17.52 C-4.25 17.81 -4.25 17.81 -8.44 15.88 C-10.57 12.83 -10.85 10.93 -10.61 7.27 C-9.77 3.51 -7.19 2.07 -4.19 0 C-2.19 -0.62 -2.19 -0.62 0 0 Z " fill="#434544" transform="translate(198.1875,792.625)"/>
<path d="M0 0 C5.6 0.6 5.6 0.6 8 3 C9.65 2.34 11.3 1.68 13 1 C15 4 15 4 15 7 C14.01 7.66 13.02 8.32 12 9 C13.65 12.89 15.08 16.2 18.31 19 C21.64 20.24 24.47 20.07 28 20 C30 22 30 22 30.12 24.62 C30.08 25.41 30.04 26.19 30 27 C18.58 28.07 18.58 28.07 14.8 25.51 C11 21.07 11 21.07 11 18 C9.68 17.34 8.36 16.68 7 16 C7 15.34 7 14.68 7 14 C5.61 13.72 5.61 13.72 4.19 13.44 C1 12 1 12 -0.94 8.62 C-2.33 3.88 -2.33 3.88 -1 1 C-0.67 0.67 -0.34 0.34 0 0 Z " fill="#404242" transform="translate(297,694)"/>
<path d="M0 0 C2.59 1.79 3.91 4.07 5 7 C5.48 10.77 5.29 12.5 3.38 15.81 C0.42 18.54 -0.98 19.08 -5 19 C-7.92 17.76 -10.74 16.26 -13 14 C-13.59 6.92 -13.59 6.92 -11.12 3.06 C-7.52 -0.43 -4.96 -0.35 0 0 Z " fill="#000102" transform="translate(249,758)"/>
<path d="M0 0 C2.16 2.09 2.9 3.49 3.47 6.44 C3.55 13.23 3.55 13.23 1.06 16.69 C-3.14 18.49 -6.62 18.17 -11 17 C-14 15 -14 15 -14.75 13.31 C-15.22 8.96 -14.8 5.35 -12.56 1.56 C-8.67 -0.81 -4.43 -1.01 0 0 Z " fill="#000102" transform="translate(650,421)"/>
<path d="M0 0 C3.22 2.88 3.95 4.36 4.31 8.69 C4 12 4 12 3 14 C2.01 14.33 1.02 14.66 0 15 C-0.33 15.66 -0.66 16.32 -1 17 C-8.27 17.48 -8.27 17.48 -11.44 15.38 C-13.36 12.46 -13.86 10.49 -14 7 C-13.22 3.29 -12.41 2.28 -9.25 0.12 C-5.5 -1.17 -3.74 -1.3 0 0 Z " fill="#000102" transform="translate(336,687)"/>
<path d="M0 0 C0.68 -0.01 1.36 -0.03 2.06 -0.04 C4 0.19 4 0.19 7 2.19 C7.81 3.92 7.81 3.92 8.44 5.94 C10.13 10.81 12.46 14.69 16.19 18.31 C18.12 20.31 18.61 21.48 19 24.19 C17.35 24.52 15.7 24.85 14 25.19 C14 24.53 14 23.87 14 23.19 C13.01 22.86 12.02 22.53 11 22.19 C10.34 21.2 9.68 20.21 9 19.19 C8.07 19.08 7.14 18.98 6.19 18.88 C1.69 17.9 0.65 15.85 -2 12.19 C-1.01 12.52 -0.02 12.85 1 13.19 C1.33 12.53 1.66 11.87 2 11.19 C1.34 11.19 0.68 11.19 0 11.19 C-1.56 8.85 -2.86 6.48 -4.06 3.94 C-4.88 2.01 -4.88 2.01 -7 1.19 C-4.36 0.31 -2.72 0.03 0 0 Z " fill="#414342" transform="translate(254,741.8125)"/>
<path d="M0 0 C2.06 2.69 2.06 2.69 3 6 C2.42 9.43 1.57 11.98 -0.12 15 C-2.78 16.41 -5.09 16.14 -7.99 15.63 C-11.44 14.55 -13.01 12.96 -15 10 C-15.07 5.92 -14.66 3.84 -12.12 0.62 C-7.76 -2.72 -4.91 -2.02 0 0 Z " fill="#000102" transform="translate(186,817)"/>
<path d="M0 0 C2.48 0.92 3.42 1.96 5.06 4.02 C5.57 4.64 6.08 5.27 6.6 5.92 C7.08 6.53 7.57 7.14 8.06 7.77 C9.24 9.16 9.24 9.16 10.44 10.58 C12.06 12.77 12.06 12.77 12.06 14.77 C12.72 14.77 13.38 14.77 14.06 14.77 C15.78 16.72 17.45 18.72 19.06 20.77 C17.69 23.93 17.07 24.76 14.06 26.77 C3.6 15.59 3.6 15.59 -1.12 9.83 C-1.95 8.82 -1.95 8.82 -2.79 7.8 C-4.2 5.31 -4.16 3.58 -3.94 0.77 C-1.94 -0.23 -1.94 -0.23 0 0 Z " fill="#424443" transform="translate(204.9375,784.234375)"/>
<path d="M0 0 C0.33 0.33 0.66 0.66 1 1 C0.68 7.15 -0.67 10.84 -4 16 C-6.59 15.65 -8.58 15.26 -10.81 13.88 C-12.73 10.85 -12.43 8.48 -12 5 C-8.65 0.61 -5.39 -0.28 0 0 Z " fill="#000102" transform="translate(1251,815)"/>
<path d="M0 0 C2.18 1.84 3.39 3.59 5 6 C5 6.33 5 6.66 5 7 C-2.51 7.94 -9.49 7.94 -17 7 C-17.33 6.01 -17.66 5.02 -18 4 C-11.97 -0.25 -7.4 -2.45 0 0 Z " fill="#343635" transform="translate(300,713)"/>
<path d="M0 0 C0 2.31 0 4.62 0 7 C-5.44 7.5 -5.44 7.5 -11 8 C-11.33 8.99 -11.66 9.98 -12 11 C-12.66 11 -13.32 11 -14 11 C-14.33 12.65 -14.66 14.3 -15 16 C-17.27 13.64 -17.98 12.44 -18.12 9.12 C-14.99 0.42 -8.5 -0.92 0 0 Z " fill="#3D3F3F" transform="translate(1252,809)"/>
<path d="M0 0 C12.67 -0.55 12.67 -0.55 18 3 C18 3.99 18 4.98 18 6 C18.66 6 19.32 6 20 6 C20 6.66 20 7.32 20 8 C17 10 17 10 14.75 9.94 C11.55 8.85 9.37 7.24 6.75 5.16 C5.03 3.87 5.03 3.87 2.85 3.53 C2.24 3.36 1.63 3.18 1 3 C0.67 2.01 0.34 1.02 0 0 Z " fill="#3B3D3C" transform="translate(272,742)"/>
<path d="M0 0 C0.09 5.15 -0.15 9.92 -1 15 C-5.88 13.25 -5.88 13.25 -7 11 C-7.43 7.15 -7.28 5.45 -5.19 2.12 C-3 0 -3 0 0 0 Z " fill="#000102" transform="translate(667,402)"/>
<path d="M0 0 C8.19 -0.47 8.19 -0.47 11.56 1.5 C12.04 2 12.51 2.49 13 3 C12 6 12 6 9 8 C5.94 8.25 5.94 8.25 3 8 C2.34 7.34 1.68 6.68 1 6 C1.38 3.38 1.38 3.38 2 1 C1.34 0.67 0.68 0.34 0 0 Z " fill="#3C3E3E" transform="translate(350,684)"/>
<path d="M0 0 C5.61 0 11.22 0 17 0 C14 3 14 3 10.19 3.31 C6.52 3.18 3.42 2.37 0 1 C0 0.67 0 0.34 0 0 Z " fill="#2E3030" transform="translate(324,707)"/>
<path d="M0 0 C1.32 0 2.64 0 4 0 C5.06 2.38 5.06 2.38 6 5 C5.67 5.66 5.34 6.32 5 7 C3.35 7 1.7 7 0 7 C-1.12 2.25 -1.12 2.25 0 0 Z " fill="#383A3A" transform="translate(194,775)"/>
<path d="M0 0 C3.57 1.88 5.55 3.17 7 7 C5.23 7.68 5.23 7.68 3 8 C1.08 6.79 1.08 6.79 -0.75 5.06 C-1.36 4.5 -1.98 3.93 -2.61 3.35 C-3.07 2.9 -3.53 2.46 -4 2 C-3.01 2 -2.02 2 -1 2 C-0.67 1.34 -0.34 0.68 0 0 Z " fill="#242627" transform="translate(256,753)"/>
<path d="M0 0 C1.35 2.69 0.77 4.14 0.19 7.06 C0.02 7.96 -0.16 8.86 -0.33 9.79 C-0.55 10.52 -0.77 11.25 -1 12 C-1.99 12.5 -1.99 12.5 -3 13 C-3 9.33 -3 5.67 -3 2 C-2.01 1.34 -1.02 0.68 0 0 Z " fill="#242627" transform="translate(323,682)"/>
<path d="M0 0 C0.66 0.66 1.32 1.32 2 2 C-0.97 2 -3.94 2 -7 2 C-7.33 2.99 -7.66 3.98 -8 5 C-8.33 4.01 -8.66 3.02 -9 2 C-9.66 1.67 -10.32 1.34 -11 1 C-7.08 -0.31 -4.14 -0.2 0 0 Z " fill="#2F3131" transform="translate(258,742)"/>
</svg>
